<svg viewBox="549.3654 329.6614 303.2693 226.0007" width="5000" height="3726.0728336168545" xmlns="http://www.w3.org/2000/svg" xmlns:xlink="http://www.w3.org/1999/xlink" preserveAspectRatio="none"><defs></defs><style>.aD6z1nYkhcolor {fill:#000000;fill-opacity:1;}.aD6z1nYkhstrokeColor-str {stroke:#3F3F3F;stroke-opacity:1;}.aIptOCySncolors-0 {fill:#000000;fill-opacity:1;}.aIptOCySncolors-1 {fill:#3F3F3F;fill-opacity:1;}</style><g opacity="1" transform="rotate(0 636.9295 329.6614)">
<svg width="128.1412" height="118.0761" x="636.9295" y="329.6614" version="1.1" preserveAspectRatio="none" viewBox="19.999217987060547 27 160.0006103515625 147.43299865722656">
  <g transform="matrix(1 0 0 1 0 0)" ><g><path d="M35.731 138.136l11.749 20.351a31.89 31.89 0 0 0 27.618 15.946h24.443l-42.26-73.939-21.55 37.642z" data-color="1" class="aIptOCySncolors-0"></path><path d="M163.509 63.103l-42.694 74.254 43.227.106 11.418-19.776a33.884 33.884 0 0 0 .001-33.883l-11.952-20.701z" data-color="1" class="aIptOCySncolors-0"></path><path d="M45.178 46.957l-10.162 17.6 86.228-.042-21.782-37.489H79.699a39.863 39.863 0 0 0-34.521 19.931z" data-color="1" class="aIptOCySncolors-0"></path><path d="M34.938 64.189L25.34 80.814a39.862 39.862 0 0 0 0 39.863l10.309 17.855 42.592-74.37-43.303.027z" data-color="1" class="aIptOCySncolors-0"></path><path d="M99.685 174.433h19.691c14.241 0 27.4-7.597 34.521-19.93l10.071-17.442-85.746-.116 21.463 37.488z" data-color="1" class="aIptOCySncolors-0"></path><path opacity=".4" d="M35.731 138.136l11.749 20.351a31.89 31.89 0 0 0 27.618 15.946h24.443l-42.26-73.939-21.55 37.642z" data-color="2" class="aIptOCySncolors-1"></path><path d="M99.537 27l42.522 74.082 21.554-37.642-9.531-16.509A39.862 39.862 0 0 0 119.56 27H99.537z" data-color="2" class="aIptOCySncolors-1"></path><path opacity=".8" d="M163.509 63.103l-42.694 74.254 43.227.106 11.418-19.776a33.884 33.884 0 0 0 .001-33.883l-11.952-20.701z" data-color="2" class="aIptOCySncolors-1"></path><path opacity=".2" d="M34.938 64.189L25.34 80.814a39.862 39.862 0 0 0 0 39.863l10.309 17.855 42.592-74.37-43.303.027z" data-color="2" class="aIptOCySncolors-1"></path><path opacity=".6" d="M99.685 174.433h19.691c14.241 0 27.4-7.597 34.521-19.93l10.071-17.442-85.746-.116 21.463 37.488z" data-color="2" class="aIptOCySncolors-1"></path></g></g>
</svg>
</g><g opacity="1" transform="rotate(0 549.3654 461.1773)">
<svg width="303.2693" height="94.4848" x="549.3654" y="461.1773" version="1.1" preserveAspectRatio="none" viewBox="1.52 -30.8 132.23999999999998 41.2">
  <g transform="matrix(1 0 0 1 0 0)" class="aD6z1nYkhcolor"><path id="id-D6z1nYkh5" d="M17.16 0L1.52 0L1.52-1.52Q3.04-1.56 3.98-1.74Q4.92-1.92 5.44-2.42Q5.96-2.92 6.14-3.78Q6.32-4.64 6.32-6.08L6.32-6.08L6.32-24.72Q6.32-26.12 6.18-26.98Q6.04-27.84 5.62-28.34Q5.20-28.84 4.40-29.02Q3.60-29.20 2.32-29.28L2.32-29.28L2.32-30.80L16.36-30.80Q19.96-30.80 23.02-29.60Q26.08-28.40 28.30-26.28Q30.52-24.16 31.76-21.24Q33-18.32 33-14.88L33-14.88Q33-11.60 31.84-8.86Q30.68-6.12 28.58-4.16Q26.48-2.20 23.56-1.10Q20.64 0 17.16 0L17.16 0ZM16.28-28.84L11.20-28.84Q10.52-28.84 10.52-28.16L10.52-28.16L10.52-6.52Q10.52-1.96 16.48-1.96L16.48-1.96Q21.96-1.96 24.88-5.22Q27.80-8.48 27.80-14.80L27.80-14.80Q27.80-18.12 27-20.72Q26.20-23.32 24.70-25.12Q23.20-26.92 21.08-27.88Q18.96-28.84 16.28-28.84L16.28-28.84Z M49.04-8.68L49.04-11.84Q46.76-10.96 45.18-10.12Q43.60-9.28 42.64-8.44Q41.68-7.60 41.26-6.76Q40.84-5.92 40.84-5.04L40.84-5.04Q40.84-3.72 41.72-2.88Q42.60-2.04 44.04-2.04L44.04-2.04Q45.08-2.04 45.98-2.56Q46.88-3.08 47.56-3.98Q48.24-4.88 48.64-6.10Q49.04-7.32 49.04-8.68L49.04-8.68ZM43.28-11.04L49.04-13.56L49.04-15.20Q49.04-20.08 44.88-20.08L44.88-20.08Q44.20-20.08 43.72-19.96Q43.24-19.84 42.92-19.56Q42.60-19.28 42.34-18.76Q42.08-18.24 41.84-17.48L41.84-17.48Q41.40-16.32 40.98-15.94Q40.56-15.56 39.76-15.56L39.76-15.56Q37.76-15.56 37.76-17.56L37.76-17.56Q37.76-19.48 39.80-20.54Q41.84-21.60 45.60-21.60L45.60-21.60Q49.60-21.60 51.28-20.18Q52.96-18.76 52.96-15.36L52.96-15.36L52.96-6.40Q52.96-1.84 54.76-1.84L54.76-1.84Q55.32-1.84 55.84-1.98Q56.36-2.12 56.72-2.72L56.72-2.72L57.28-1.76Q56.80-0.84 55.52-0.22Q54.24 0.40 52.84 0.40L52.84 0.40Q51.08 0.40 50.22-0.72Q49.36-1.84 49.36-3.88L49.36-3.88L49.16-3.88Q48.12-1.92 46.28-0.78Q44.44 0.36 42.20 0.36L42.20 0.36Q39.68 0.36 38.24-0.92Q36.80-2.20 36.80-4.36L36.80-4.36Q36.80-5.32 37.14-6.20Q37.48-7.08 38.24-7.88Q39-8.68 40.24-9.46Q41.48-10.24 43.28-11.04L43.28-11.04Z M68.20-8.60L68.20-8.60Q69.88-8.60 70.82-10.12Q71.76-11.64 71.76-14.40L71.76-14.40Q71.76-17.12 70.82-18.62Q69.88-20.12 68.16-20.12L68.16-20.12Q66.44-20.12 65.42-18.60Q64.40-17.08 64.40-14.44L64.40-14.44Q64.40-11.80 65.44-10.20Q66.48-8.60 68.20-8.60ZM66-3.92L66-3.92Q66.96-3.84 67.76-3.76Q68.56-3.68 69.34-3.60Q70.12-3.52 70.90-3.40Q71.68-3.28 72.60-3.16L72.60-3.16Q75.48-2.72 77.22-0.94Q78.96 0.84 78.96 3.52L78.96 3.52Q78.96 6.88 76.30 8.64Q73.64 10.40 68.60 10.40L68.60 10.40Q66.36 10.40 64.50 10Q62.64 9.60 61.32 8.86Q60.00 8.12 59.26 7.08Q58.52 6.04 58.52 4.80L58.52 4.80Q58.52 3.96 58.80 3.24Q59.08 2.52 59.56 1.98Q60.04 1.44 60.70 1.12Q61.36 0.80 62.08 0.80L62.08 0.80Q63.44 0.80 64.52 1.64L64.52 1.64Q63.44 1.88 62.76 2.82Q62.08 3.76 62.08 4.96L62.08 4.96Q62.08 6.72 63.82 7.68Q65.56 8.64 68.76 8.64L68.76 8.64Q75.60 8.64 75.60 4.44L75.60 4.44Q75.60 2.84 74.52 1.78Q73.44 0.72 71.96 0.52L71.96 0.52Q71 0.40 69.98 0.26Q68.96 0.12 67.98 0Q67-0.12 66.16-0.20Q65.32-0.28 64.80-0.36L64.80-0.36Q62.56-0.60 61.40-1.56Q60.24-2.52 60.24-4.20L60.24-4.20Q60.24-5.60 61.40-6.68Q62.56-7.76 64.32-8.04L64.32-8.04L64.32-8.20Q63.44-8.56 62.68-9.22Q61.92-9.88 61.38-10.72Q60.84-11.56 60.52-12.54Q60.20-13.52 60.20-14.56L60.20-14.56Q60.20-16.08 60.78-17.36Q61.36-18.64 62.42-19.58Q63.48-20.52 64.92-21.06Q66.36-21.60 68.08-21.60L68.08-21.60Q69.84-21.60 71.40-21.06Q72.96-20.52 74.08-19.48L74.08-19.48Q75.44-20.60 76.48-21.10Q77.52-21.60 78.44-21.60L78.44-21.60Q79.88-21.60 80.74-20.94Q81.60-20.28 81.60-19.16L81.60-19.16Q81.60-18.48 81.14-18.08Q80.68-17.68 80-17.68L80-17.68Q79.44-17.68 79.08-17.88Q78.72-18.08 78.42-18.30Q78.12-18.52 77.80-18.72Q77.48-18.92 77-18.92L77-18.92Q76.04-18.92 75.04-18.24L75.04-18.24Q76-16.76 76-14.52L76-14.52Q76-11.12 73.88-9.18Q71.76-7.24 67.52-6.92L67.52-6.92Q65.08-6.72 64.12-6.40Q63.16-6.08 63.16-5.24L63.16-5.24Q63.16-4.60 63.88-4.30Q64.60-4 66-3.92Z M94.00-21.60L94.00-21.60Q96.28-21.60 98.32-20.78Q100.36-19.96 101.90-18.52Q103.44-17.08 104.34-15.10Q105.24-13.12 105.24-10.76L105.24-10.76Q105.24-8.32 104.34-6.28Q103.44-4.24 101.90-2.76Q100.36-1.28 98.32-0.44Q96.28 0.40 94.00 0.40L94.00 0.40Q91.76 0.40 89.74-0.42Q87.72-1.24 86.20-2.72Q84.68-4.20 83.80-6.26Q82.92-8.32 82.92-10.76L82.92-10.76Q82.92-13.12 83.80-15.12Q84.68-17.12 86.20-18.56Q87.72-20 89.74-20.80Q91.76-21.60 94.00-21.60ZM94.00-19.68L94.00-19.68Q92.52-19.68 91.30-19.04Q90.08-18.40 89.22-17.22Q88.36-16.04 87.90-14.38Q87.44-12.72 87.44-10.72L87.44-10.72Q87.44-8.64 87.90-6.96Q88.36-5.28 89.22-4.10Q90.08-2.92 91.28-2.28Q92.48-1.64 94.00-1.64L94.00-1.64Q95.52-1.64 96.76-2.28Q98.00-2.92 98.88-4.12Q99.76-5.32 100.24-7Q100.72-8.68 100.72-10.72L100.72-10.72Q100.72-12.72 100.24-14.36Q99.76-16 98.88-17.18Q98.00-18.36 96.76-19.02Q95.52-19.68 94.00-19.68Z M115.80-11.64L115.80-6.28Q115.80-4.64 115.88-3.70Q115.96-2.76 116.30-2.26Q116.64-1.76 117.30-1.60Q117.96-1.44 119.12-1.36L119.12-1.36L119.12 0L108.64 0L108.64-1.36Q109.76-1.44 110.42-1.60Q111.08-1.76 111.44-2.24Q111.80-2.72 111.90-3.60Q112.00-4.48 112.00-6L112.00-6L112.00-11.32Q112.00-16.08 111.76-17.12L111.76-17.12Q111.64-17.64 111.46-17.98Q111.28-18.32 110.92-18.50Q110.56-18.68 110.00-18.74Q109.44-18.80 108.56-18.80L108.56-18.80L108.56-20.08L114.96-21.60L115.44-17.64L115.60-17.64Q117.12-19.52 119.16-20.56Q121.20-21.60 123.60-21.60L123.60-21.60Q125.44-21.60 126.96-21Q128.48-20.40 129.28-19.36L129.28-19.36Q129.96-18.44 130.24-16.98Q130.52-15.52 130.52-12.96L130.52-12.96L130.52-6.28Q130.52-4.64 130.62-3.70Q130.72-2.76 131.04-2.26Q131.36-1.76 132.02-1.60Q132.68-1.44 133.76-1.36L133.76-1.36L133.76 0L123.40 0L123.40-1.36Q124.52-1.40 125.18-1.58Q125.84-1.76 126.18-2.24Q126.52-2.72 126.62-3.62Q126.72-4.52 126.72-6L126.72-6L126.72-11.28Q126.72-13.56 126.48-15.12Q126.24-16.68 125.70-17.64Q125.16-18.60 124.28-19.02Q123.40-19.44 122.16-19.44L122.16-19.44Q120.36-19.44 118.86-18.50Q117.36-17.56 116.52-15.92L116.52-15.92Q116.32-15.52 116.18-15.16Q116.04-14.80 115.96-14.32Q115.88-13.84 115.84-13.22Q115.80-12.60 115.80-11.64L115.80-11.64Z"/></g>
</svg>
</g></svg>